<?xml version="1.0" encoding="UTF-8"?>
<svg width="700pt" height="700pt" version="1.1" viewBox="0 0 700 700" xmlns="http://www.w3.org/2000/svg">
 <g>
  <path d="m568.23 207.2-30.977-92.926c-3.5-10.676-13.648-18.023-24.852-18.023h-324.8c-11.375 0-21.352 7.1758-24.852 18.023-0.52344 4.0234-32.727 93.102-31.5 97.125 0 24.324 14.176 44.625 35 54.074v172.03c0 14.523 11.727 26.25 26.25 26.25h315c14.523 0 26.25-11.727 26.25-26.25v-172.02c20.824-9.4492 35-29.75 35-53.898-0.35156-1.4023 0.17578-2.9766-0.52344-4.3789zm-388.85-87.5c1.0508-3.5 4.5508-5.9492 8.2266-5.9492h324.8c3.8516 0 7.1758 2.4492 8.2266 5.9492l27.125 81.551h-395.68zm266 99.051c-4.0234 19.949-21.699 35-42.875 35s-38.852-15.051-42.875-35zm-105 0c-4.0234 19.949-21.699 35-42.875 35s-38.852-15.051-42.875-35zm-190.93 0h85.926c-4.0234 19.949-21.699 35-42.875 35-20.477 0-39.551-14.352-43.051-35zm314.3 227.5h-52.5v-96.25c0-4.8984 3.8516-8.75 8.75-8.75h35c4.8984 0 8.75 3.8516 8.75 8.75zm52.5-8.75c0 4.8984-3.8516 8.75-8.75 8.75h-26.25v-96.25c0-14.523-11.727-26.25-26.25-26.25h-35c-14.523 0-26.25 11.727-26.25 26.25v96.25h-201.25c-4.8984 0-8.75-3.8516-8.75-8.75v-167.12c2.8008 0.35156 5.7734 0.875 8.75 0.875 22.227 0 41.824-11.898 52.5-29.75 10.676 17.852 30.273 29.75 52.5 29.75s41.824-11.898 52.5-29.75c10.676 17.852 30.273 29.75 52.5 29.75s41.824-11.898 52.5-29.75c10.676 17.852 30.273 29.75 52.5 29.75 2.9766 0 5.9492-0.52344 8.75-0.875zm6.4766-186.38c-4.8984 1.5742-9.8008 2.8008-15.227 2.625-21.176 0-38.852-15.051-42.875-35h85.926c-2.625 15.227-13.301 27.301-27.824 32.375z"/>
  <path d="m332.5 306.25h-87.5c-14.523 0-26.25 11.727-26.25 26.25v52.5c0 14.523 11.727 26.25 26.25 26.25h87.5c14.523 0 26.25-11.727 26.25-26.25v-52.5c0-14.523-11.727-26.25-26.25-26.25zm8.75 78.75c0 4.8984-3.8516 8.75-8.75 8.75h-87.5c-4.8984 0-8.75-3.8516-8.75-8.75v-52.5c0-4.8984 3.8516-8.75 8.75-8.75h87.5c4.8984 0 8.75 3.8516 8.75 8.75z"/>
 </g>
</svg>
